<svg xmlns="http://www.w3.org/2000/svg" viewBox="0 0 32 32" width="32" height="32">
  <path d="M12.6,3.6c-0.8-1.5-2.8-2.1-4.3-1.3C6.7,3.1,6.1,5.1,6.9,6.7l2.8,4.8l-1.3,0.7c-1.5,0.8-2.1,2.8-1.3,4.3l1,1.8l-1.4,0.8 c-1.5,0.8-2.1,2.8-1.3,4.3l1.1,1.9l-1.4,0.8c-1.5,0.8-2.1,2.8-1.3,4.3l5,8.7c1.4,2.5,4.6,3.4,7.1,2l10.4-6 c2.5-1.4,3.4-4.6,2-7.1L12.6,3.6z" fill="#FFCC99" stroke="#000" stroke-width="2"/>
  <path d="M22,23.3l-8.7-15c-0.8-1.5-2.8-2.1-4.3-1.3c-1.5,0.8-2.1,2.8-1.3,4.3l8.7,15c0.8,1.5,2.8,2.1,4.3,1.3 C22.3,26.8,22.8,24.8,22,23.3z" fill="#FFE0B2"/>
</svg>
